# Blender v2.78 (sub 0) OBJ File: 'SwimmingPool.blend'
# www.blender.org
o LoungeChair.001_Cube.000
v 0.511463 0.343106 0.378095
v 0.511463 0.343106 0.217454
v -0.511463 0.343106 0.378095
v -0.511463 0.343106 0.217454
v -0.511463 0.319348 0.378095
v 0.511463 0.319348 0.378095
v 0.511463 0.319348 0.217454
v -0.511463 0.319348 0.217454
v 0.511463 0.343106 0.179579
v 0.511463 0.343106 0.018938
v -0.511463 0.343106 0.179579
v -0.511463 0.343106 0.018938
v -0.511463 0.319348 0.179579
v 0.511463 0.319348 0.179579
v 0.511463 0.319348 0.018938
v -0.511463 0.319348 0.018938
v 0.511463 0.343106 -0.018937
v 0.511463 0.343106 -0.179579
v -0.511463 0.343106 -0.018937
v -0.511463 0.343106 -0.179579
v -0.511463 0.319348 -0.018937
v 0.511463 0.319348 -0.018937
v 0.511463 0.319348 -0.179579
v -0.511463 0.319348 -0.179579
v 0.511463 0.343106 -0.217454
v 0.511463 0.343106 -0.378095
v -0.511463 0.343106 -0.217454
v -0.511463 0.343106 -0.378095
v -0.511463 0.319348 -0.217454
v 0.511463 0.319348 -0.217454
v 0.511463 0.319348 -0.378095
v -0.511463 0.319348 -0.378095
v 0.487880 0.319348 0.358057
v 0.487880 0.319348 -0.356345
v -0.487880 0.319348 0.358057
v -0.487880 0.319348 -0.356345
v -0.487880 0.241341 0.358057
v 0.487880 0.241341 0.358057
v 0.487880 0.241341 -0.356345
v -0.487880 0.241341 -0.356345
v -0.464070 0.318078 0.337509
v 0.464070 0.318078 0.337509
v 0.464070 0.318078 -0.335796
v -0.464070 0.318078 -0.335796
v -0.464070 0.242611 0.337509
v 0.464070 0.242611 0.337509
v 0.464070 0.242611 -0.335796
v -0.464070 0.242611 -0.335796
v 0.080321 0.318429 -0.335945
v -0.080321 0.318429 -0.335945
v 0.080321 0.318429 0.343215
v -0.080320 0.318429 0.343215
v 0.080321 0.294671 0.343215
v 0.080321 0.294671 -0.335945
v -0.080321 0.294671 -0.335945
v -0.080320 0.294671 0.343215
v -0.408882 -0.000050 -0.282198
v -0.408882 0.318078 -0.282198
v -0.464070 0.318077 -0.282198
v -0.464070 -0.000050 -0.282198
v -0.408882 -0.000050 -0.335796
v -0.408882 0.318078 -0.335796
v -0.464070 0.318077 -0.335796
v -0.464070 -0.000050 -0.335796
v -0.408882 -0.000050 0.337509
v -0.408882 0.318078 0.337509
v -0.464070 0.318077 0.337509
v -0.464070 -0.000050 0.337509
v -0.408882 -0.000050 0.283910
v -0.408882 0.318078 0.283910
v -0.464070 0.318077 0.283910
v -0.464070 -0.000050 0.283910
v 0.464070 -0.000050 -0.282198
v 0.464070 0.318078 -0.282198
v 0.408882 0.318077 -0.282198
v 0.408882 -0.000050 -0.282198
v 0.464070 -0.000050 -0.335796
v 0.464070 0.318078 -0.335796
v 0.408882 0.318077 -0.335796
v 0.408882 -0.000050 -0.335796
v 0.464070 -0.000050 0.337509
v 0.464070 0.318078 0.337509
v 0.408882 0.318077 0.337509
v 0.408882 -0.000050 0.337509
v 0.464070 -0.000050 0.283910
v 0.464070 0.318078 0.283910
v 0.408882 0.318077 0.283910
v 0.408882 -0.000050 0.283910
vt 0.5144 0.1374
vt 0.5144 0.2151
vt 0.0199 0.2151
vt 0.0199 0.1374
vt 0.5144 0.2266
vt 0.0199 0.2266
vt 0.0199 0.1260
vt 0.5144 0.1260
vt 0.0084 0.2151
vt 0.0084 0.1374
vt 0.5259 0.1374
vt 0.5259 0.2151
vt 0.0084 0.9675
vt 0.0084 0.8899
vt 0.5030 0.8899
vt 0.5030 0.9675
vt 0.5144 0.0199
vt 0.5144 0.0976
vt 0.0199 0.0976
vt 0.0199 0.0199
vt 0.5144 0.1091
vt 0.0199 0.1091
vt 0.0199 0.0084
vt 0.5144 0.0084
vt 0.0084 0.0976
vt 0.0084 0.0199
vt 0.5259 0.0199
vt 0.5259 0.0976
vt 0.4970 0.5562
vt 0.4970 0.4785
vt 0.9916 0.4785
vt 0.9916 0.5562
vt 0.5144 0.2550
vt 0.5144 0.3326
vt 0.0199 0.3326
vt 0.0199 0.2550
vt 0.5144 0.3441
vt 0.0199 0.3441
vt 0.0199 0.2435
vt 0.5144 0.2435
vt 0.0084 0.3326
vt 0.0084 0.2550
vt 0.5259 0.2550
vt 0.5259 0.3326
vt 0.0084 0.7784
vt 0.0084 0.7008
vt 0.5030 0.7008
vt 0.5030 0.7784
vt 0.5144 0.3725
vt 0.5144 0.4501
vt 0.0199 0.4501
vt 0.0199 0.3725
vt 0.5144 0.4616
vt 0.0199 0.4616
vt 0.0199 0.3610
vt 0.5144 0.3610
vt 0.0084 0.4501
vt 0.0084 0.3725
vt 0.5259 0.3725
vt 0.5259 0.4501
vt 0.0084 0.8730
vt 0.0084 0.7953
vt 0.5030 0.7953
vt 0.5030 0.8730
vt 0.4687 0.5151
vt 0.0200 0.5150
vt 0.0200 0.4785
vt 0.4687 0.4787
vt 0.4802 0.5251
vt 0.4801 0.5628
vt 0.0084 0.5627
vt 0.0085 0.5249
vt 0.0084 0.6373
vt 0.0085 0.5996
vt 0.4802 0.5998
vt 0.4801 0.6375
vt 0.8967 0.1805
vt 0.8967 0.2182
vt 0.5513 0.2182
vt 0.5513 0.1805
vt 0.5555 0.3036
vt 0.5555 0.2659
vt 0.9009 0.2659
vt 0.9009 0.3036
vt 0.0200 0.6473
vt 0.4686 0.6474
vt 0.4686 0.6839
vt 0.0199 0.6837
vt 0.8867 0.1689
vt 0.5612 0.1689
vt 0.5612 0.1324
vt 0.8867 0.1324
vt 0.5654 0.3151
vt 0.8909 0.3151
vt 0.8909 0.3516
vt 0.5654 0.3516
vt 0.8867 0.2297
vt 0.5612 0.2297
vt 0.5654 0.2543
vt 0.8909 0.2543
vt 0.4686 0.5728
vt 0.0200 0.5726
vt 0.0200 0.5897
vt 0.4687 0.5898
vt 0.8711 0.0199
vt 0.8711 0.0976
vt 0.5428 0.0976
vt 0.5428 0.0199
vt 0.8711 0.1091
vt 0.5428 0.1091
vt 0.5428 0.0084
vt 0.8711 0.0084
vt 0.5599 0.4526
vt 0.5599 0.3749
vt 0.8882 0.3749
vt 0.8882 0.4526
vt 0.5671 0.6523
vt 0.7209 0.6523
vt 0.7209 0.6790
vt 0.5671 0.6790
vt 0.5671 0.6264
vt 0.5671 0.5997
vt 0.7209 0.5997
vt 0.7209 0.6264
vt 0.5404 0.6790
vt 0.5671 0.7049
vt 0.5404 0.7049
vt 0.7209 0.7049
vt 0.5650 0.7819
vt 0.7188 0.7819
vt 0.7188 0.8085
vt 0.5650 0.8085
vt 0.5650 0.7560
vt 0.5650 0.7293
vt 0.7188 0.7293
vt 0.7188 0.7560
vt 0.5383 0.8085
vt 0.5650 0.8345
vt 0.5383 0.8345
vt 0.7188 0.8345
vt 0.5586 0.9160
vt 0.7124 0.9160
vt 0.7124 0.9427
vt 0.5586 0.9427
vt 0.5586 0.8901
vt 0.5586 0.8634
vt 0.7124 0.8634
vt 0.7124 0.8901
vt 0.5319 0.9427
vt 0.5586 0.9686
vt 0.5319 0.9686
vt 0.7124 0.9686
vt 0.7841 0.9100
vt 0.9379 0.9100
vt 0.9379 0.9367
vt 0.7841 0.9367
vt 0.7841 0.8841
vt 0.7841 0.8574
vt 0.9379 0.8574
vt 0.9379 0.8841
vt 0.7574 0.9367
vt 0.7841 0.9626
vt 0.7574 0.9626
vt 0.9379 0.9626
vn 0.0000 1.0000 0.0000
vn 0.0000 0.0000 -1.0000
vn 0.0000 0.0000 1.0000
vn -1.0000 0.0000 0.0000
vn 1.0000 0.0000 0.0000
vn 0.0000 -1.0000 0.0000
vn 0.0292 -0.9992 0.0280
vn 0.0258 -0.9992 0.0318
vn 0.0258 -0.9992 -0.0318
vn 0.0292 -0.9992 -0.0280
vn -0.0292 -0.9992 -0.0280
vn -0.0258 -0.9992 -0.0318
vn -0.0258 -0.9992 0.0318
vn -0.0292 -0.9992 0.0280
vn 0.0292 0.9992 -0.0280
vn 0.0258 0.9992 -0.0318
vn 0.0258 0.9992 0.0318
vn 0.0292 0.9992 0.0280
vn -0.0292 0.9992 0.0280
vn -0.0258 0.9992 0.0318
vn -0.0258 0.9992 -0.0318
vn -0.0292 0.9992 -0.0280
s 1
f 1/1/1 2/2/1 4/3/1 3/4/1
f 2/2/2 7/5/2 8/6/2 4/3/2
f 3/4/3 5/7/3 6/8/3 1/1/3
f 4/3/4 8/9/4 5/10/4 3/4/4
f 1/1/5 6/11/5 7/12/5 2/2/5
f 5/13/6 8/14/6 7/15/6 6/16/6
f 9/17/1 10/18/1 12/19/1 11/20/1
f 10/18/2 15/21/2 16/22/2 12/19/2
f 11/20/3 13/23/3 14/24/3 9/17/3
f 12/19/4 16/25/4 13/26/4 11/20/4
f 9/17/5 14/27/5 15/28/5 10/18/5
f 13/29/6 16/30/6 15/31/6 14/32/6
f 17/33/1 18/34/1 20/35/1 19/36/1
f 18/34/2 23/37/2 24/38/2 20/35/2
f 19/36/3 21/39/3 22/40/3 17/33/3
f 20/35/4 24/41/4 21/42/4 19/36/4
f 17/33/5 22/43/5 23/44/5 18/34/5
f 21/45/6 24/46/6 23/47/6 22/48/6
f 25/49/1 26/50/1 28/51/1 27/52/1
f 26/50/2 31/53/2 32/54/2 28/51/2
f 27/52/3 29/55/3 30/56/3 25/49/3
f 28/51/4 32/57/4 29/58/4 27/52/4
f 25/49/5 30/59/5 31/60/5 26/50/5
f 29/61/6 32/62/6 31/63/6 30/64/6
f 43/65/3 44/66/3 48/67/3 47/68/3
f 34/69/2 39/70/2 40/71/2 36/72/2
f 35/73/3 37/74/3 38/75/3 33/76/3
f 36/77/4 40/78/4 37/79/4 35/80/4
f 33/81/5 38/82/5 39/83/5 34/84/5
f 41/85/2 42/86/2 46/87/2 45/88/2
f 44/89/5 41/90/5 45/91/5 48/92/5
f 42/93/4 43/94/4 47/95/4 46/96/4
f 40/78/7 48/97/8 45/98/9 37/79/10
f 38/82/11 46/99/12 47/100/13 39/83/14
f 35/80/15 41/90/16 44/89/17 36/77/18
f 34/84/19 43/94/20 42/93/21 33/81/22
f 39/70/14 47/101/13 48/102/8 40/71/7
f 37/74/10 45/103/9 46/104/12 38/75/11
f 36/72/18 44/66/17 43/65/20 34/69/19
f 33/76/22 42/86/21 41/85/16 35/73/15
f 49/105/1 50/106/1 52/107/1 51/108/1
f 50/106/4 55/109/4 56/110/4 52/107/4
f 51/108/5 53/111/5 54/112/5 49/105/5
f 53/113/6 56/114/6 55/115/6 54/116/6
f 57/117/3 58/118/3 59/119/3 60/120/3
f 61/121/2 64/122/2 63/123/2 62/124/2
f 57/125/6 60/120/6 64/126/6 61/127/6
f 60/120/4 59/119/4 63/128/4 64/126/4
f 58/118/5 57/117/5 61/121/5 62/124/5
f 65/129/3 66/130/3 67/131/3 68/132/3
f 69/133/2 72/134/2 71/135/2 70/136/2
f 65/137/6 68/132/6 72/138/6 69/139/6
f 68/132/4 67/131/4 71/140/4 72/138/4
f 66/130/5 65/129/5 69/133/5 70/136/5
f 73/141/3 74/142/3 75/143/3 76/144/3
f 77/145/2 80/146/2 79/147/2 78/148/2
f 73/149/6 76/144/6 80/150/6 77/151/6
f 76/144/4 75/143/4 79/152/4 80/150/4
f 74/142/5 73/141/5 77/145/5 78/148/5
f 81/153/3 82/154/3 83/155/3 84/156/3
f 85/157/2 88/158/2 87/159/2 86/160/2
f 81/161/6 84/156/6 88/162/6 85/163/6
f 84/156/4 83/155/4 87/164/4 88/162/4
f 82/154/5 81/153/5 85/157/5 86/160/5
