# This file uses centimeters as units for non-parametric coordinates.

mtllib Branches2.mtl
g default
v 0.773392 0.168107 -2.670828
v 0.428680 -0.469921 -2.185970
v 0.405894 0.536794 -0.880675
v -0.190820 0.401038 -1.332933
v -0.195328 -0.327304 -1.025358
v -0.005565 0.000507 0.003617
vt 0.032350 0.978920
vt 0.390438 0.873469
vt 0.446358 1.001941
vt 0.059363 0.637976
vt 0.453708 0.741632
vt 0.636182 0.877113
vn -0.191818 0.969084 -0.155184
vn -0.494170 0.763169 -0.416376
vn -0.576144 0.767829 -0.280172
vn -0.494170 0.763169 -0.416376
vn -0.802805 0.377102 -0.461842
vn -0.855317 0.420209 -0.303079
vn -0.576144 0.767829 -0.280172
vn -0.191818 0.969084 -0.155184
vn -0.576144 0.767829 -0.280172
vn -0.681396 0.723112 0.113174
vn -0.576144 0.767829 -0.280172
vn -0.855317 0.420209 -0.303079
vn -0.681396 0.723112 0.113174
s off
g Needles:pPlane1
usemtl Needles:initialShadingGroup
f 3/3/1 1/1/2 4/2/3
f 1/1/4 2/4/5 5/5/6 4/2/7
f 3/3/8 4/2/9 6/6/10
f 4/2/11 5/5/12 6/6/13
g default
v 0.818865 -0.415822 -2.627046
v -0.022239 -0.053712 -3.109907
v -0.918016 -0.410374 -2.495034
v 0.801401 -0.091064 -1.010445
v -0.011114 0.442498 -1.059332
v -0.910468 -0.082362 -1.030556
v -0.001072 -0.003766 0.015565
vt 0.359379 0.538588
vt 0.186584 0.631197
vt 0.167788 0.209647
vt 0.347726 0.210298
vt -0.000167 0.522458
vt 0.000678 0.208996
vt 0.168882 -0.005554
vn 0.513620 0.837481 -0.186598
vn 0.513620 0.837481 -0.186598
vn 0.513620 0.837481 -0.186598
vn 0.513620 0.837481 -0.186598
vn 0.016135 0.966440 -0.256386
vn -0.493649 0.841632 -0.219011
vn -0.501844 0.861614 -0.075987
vn 0.001377 0.999115 -0.042032
vn 0.503861 0.860112 -0.079567
vn 0.001377 0.999115 -0.042032
vn 0.002151 0.930943 0.365158
vn 0.001377 0.999115 -0.042032
vn -0.501844 0.861614 -0.075987
vn 0.002151 0.930943 0.365158
s off
g Needles:pPlane2
usemtl Needles:initialShadingGroup
f 7/7/14 8/8/15 11/9/16 10/10/17
f 8/8/18 9/11/19 12/12/20 11/9/21
f 10/10/22 11/9/23 13/13/24
f 11/9/25 12/12/26 13/13/27
